<?xml version="1.0" encoding="utf-8" standalone="no"?>
<!DOCTYPE svg PUBLIC "-//W3C//DTD SVG 1.1//EN"
  "http://www.w3.org/Graphics/SVG/1.1/DTD/svg11.dtd">
<svg xmlns:xlink="http://www.w3.org/1999/xlink" width="156.72pt" height="41.52pt" viewBox="0 0 156.72 41.52" xmlns="http://www.w3.org/2000/svg" version="1.1">
 <metadata>
  <rdf:RDF xmlns:dc="http://purl.org/dc/elements/1.1/" xmlns:cc="http://creativecommons.org/ns#" xmlns:rdf="http://www.w3.org/1999/02/22-rdf-syntax-ns#">
   <cc:Work>
    <dc:type rdf:resource="http://purl.org/dc/dcmitype/StillImage"/>
    <dc:date>2026-07-22T17:07:45.656649</dc:date>
    <dc:format>image/svg+xml</dc:format>
    <dc:creator>
     <cc:Agent>
      <dc:title>Matplotlib v3.10.8, https://matplotlib.org/</dc:title>
     </cc:Agent>
    </dc:creator>
   </cc:Work>
  </rdf:RDF>
 </metadata>
 <defs>
  <style type="text/css">
    *{stroke-linejoin: round; stroke-linecap: butt}
    .equation{fill:#1f2328}
    @media (prefers-color-scheme:dark){.equation{fill:#f0f6fc}}
  </style>
 </defs>
 <g id="figure_1">
  <g id="patch_1">
   <path d="M 0 41.52
L 156.72 41.52
L 156.72 -0
L 0 -0
L 0 41.52
z
" style="fill: none; opacity: 0"/>
  </g>
  <g id="text_1">
   <!-- $C = \frac{L}{1+s_L} + \frac{G}{1+s_G}$ -->
   <g class="equation" transform="translate(4.32 24.96) scale(0.24 -0.24)">
    <defs>
     <path id="STIXGeneral-Italic-43" d="M 4410 4250
L 4173 2970
L 4058 2989
Q 3942 4032 3104 4032
Q 2406 4032 1830 3411
Q 1491 3053 1315 2541
Q 1139 2029 1139 1485
Q 1139 173 2259 173
Q 2656 173 2985 339
Q 3315 506 3725 934
L 3840 838
Q 3411 333 2998 109
Q 2586 -115 2093 -115
Q 1344 -115 883 329
Q 422 774 422 1555
Q 422 2214 748 2812
Q 1075 3411 1619 3795
Q 2272 4262 3021 4262
Q 3462 4262 3770 4154
Q 3898 4109 4032 4109
Q 4205 4109 4275 4250
L 4410 4250
z
" transform="scale(0.015625)"/>
     <path id="STIXGeneral-Regular-3d" d="M 4077 2048
L 307 2048
L 307 2470
L 4077 2470
L 4077 2048
z
M 4077 768
L 307 768
L 307 1190
L 4077 1190
L 4077 768
z
" transform="scale(0.015625)"/>
     <path id="STIXGeneral-Italic-4c" d="M 3578 1152
L 3206 0
L -51 0
L -51 102
Q 218 128 301 211
Q 384 294 474 602
L 1254 3405
Q 1325 3642 1325 3802
Q 1325 3942 1225 4000
Q 1126 4058 832 4077
L 832 4179
L 2579 4179
L 2579 4077
Q 2285 4058 2147 3955
Q 2010 3853 1933 3584
L 1165 838
Q 1101 595 1101 493
Q 1101 346 1241 288
Q 1382 230 1773 230
Q 2266 230 2480 275
Q 2694 320 2925 474
Q 3187 646 3450 1190
L 3578 1152
z
" transform="scale(0.015625)"/>
     <path id="STIXGeneral-Regular-31" d="M 2522 0
L 755 0
L 755 96
Q 1107 115 1235 227
Q 1363 339 1363 608
L 1363 3482
Q 1363 3795 1171 3795
Q 1082 3795 883 3718
L 710 3654
L 710 3744
L 1856 4326
L 1914 4307
L 1914 486
Q 1914 275 2042 185
Q 2170 96 2522 96
L 2522 0
z
" transform="scale(0.015625)"/>
     <path id="STIXGeneral-Regular-2b" d="M 4070 1408
L 2400 1408
L 2400 -262
L 1978 -262
L 1978 1408
L 307 1408
L 307 1830
L 1978 1830
L 1978 3501
L 2400 3501
L 2400 1830
L 4070 1830
L 4070 1408
z
" transform="scale(0.015625)"/>
     <path id="STIXGeneral-Italic-73" d="M 2342 2829
L 2214 1933
L 2112 1933
Q 2022 2675 1542 2675
Q 1370 2675 1267 2579
Q 1165 2483 1165 2310
Q 1165 2067 1510 1658
Q 1946 1152 1946 787
Q 1946 397 1686 163
Q 1427 -70 1024 -70
Q 838 -70 672 -6
Q 538 51 390 51
Q 262 51 205 -83
L 102 -83
L 230 934
L 333 934
Q 461 64 973 64
Q 1203 64 1331 192
Q 1459 320 1459 557
Q 1459 845 1101 1293
Q 698 1798 698 2131
Q 698 2451 909 2636
Q 1120 2822 1472 2822
Q 1600 2822 1830 2758
Q 1971 2714 2061 2714
Q 2189 2714 2253 2829
L 2342 2829
z
" transform="scale(0.015625)"/>
     <path id="STIXGeneral-Italic-47" d="M 4621 2042
L 4621 1939
Q 4307 1920 4188 1833
Q 4070 1747 4000 1478
L 3686 282
Q 2976 -115 2170 -115
Q 1293 -115 806 371
Q 582 595 457 934
Q 333 1274 333 1606
Q 333 2266 653 2848
Q 973 3430 1504 3802
Q 2170 4262 2912 4262
Q 3373 4262 3770 4109
Q 3936 4045 4051 4045
Q 4282 4045 4435 4262
L 4531 4230
L 4218 2970
L 4102 2989
Q 4083 3398 3866 3667
Q 3558 4045 2963 4045
Q 2214 4045 1715 3411
Q 1395 3008 1216 2496
Q 1037 1984 1037 1459
Q 1037 826 1376 474
Q 1715 122 2330 122
Q 2784 122 3002 339
Q 3059 397 3104 509
Q 3149 621 3251 986
Q 3418 1542 3418 1709
Q 3418 1894 3117 1920
L 2912 1939
L 2912 2042
L 4621 2042
z
" transform="scale(0.015625)"/>
    </defs>
    <use xlink:href="#STIXGeneral-Italic-43" transform="translate(0 0.329688)"/>
    <use xlink:href="#STIXGeneral-Regular-3d" transform="translate(81.139993 0.329688)"/>
    <use xlink:href="#STIXGeneral-Italic-4c" transform="translate(225.079974 38.126562) scale(0.7)"/>
    <use xlink:href="#STIXGeneral-Regular-31" transform="translate(164.079974 -40.439063) scale(0.7)"/>
    <use xlink:href="#STIXGeneral-Regular-2b" transform="translate(209.187961 -40.439063) scale(0.7)"/>
    <use xlink:href="#STIXGeneral-Italic-73" transform="translate(267.245948 -40.439063) scale(0.7)"/>
    <use xlink:href="#STIXGeneral-Italic-4c" transform="translate(294.475944 -49.69875) scale(0.49)"/>
    <use xlink:href="#STIXGeneral-Regular-2b" transform="translate(351.746498 0.329688)"/>
    <use xlink:href="#STIXGeneral-Italic-47" transform="translate(493.686479 39.384375) scale(0.7)"/>
    <use xlink:href="#STIXGeneral-Regular-31" transform="translate(434.686479 -40.439062) scale(0.7)"/>
    <use xlink:href="#STIXGeneral-Regular-2b" transform="translate(479.794466 -40.439062) scale(0.7)"/>
    <use xlink:href="#STIXGeneral-Italic-73" transform="translate(537.852453 -40.439062) scale(0.7)"/>
    <use xlink:href="#STIXGeneral-Italic-47" transform="translate(565.082448 -49.69875) scale(0.49)"/>
    <path d="M 164.079974 13.126563
L 164.079974 19.376563
L 324.806502 19.376563
L 324.806502 13.126563
L 164.079974 13.126563
z
"/>
    <path d="M 434.686479 13.126563
L 434.686479 19.376563
L 603.547002 19.376563
L 603.547002 13.126563
L 434.686479 13.126563
z
"/>
   </g>
  </g>
 </g>
</svg>
